<?xml version="1.0" encoding="UTF-8"?>
<!--Generator: Apple Native CoreSVG 123-->
<!DOCTYPE svg
PUBLIC "-//W3C//DTD SVG 1.1//EN"
       "http://www.w3.org/Graphics/SVG/1.1/DTD/svg11.dtd">
<svg version="1.1" xmlns="http://www.w3.org/2000/svg" xmlns:xlink="http://www.w3.org/1999/xlink" width="3300" height="2200">
 <!--glyph: "uni100243.medium", point size: 100.000000, font version: "Version 15.0d7e11", template writer version: "5"-->
 <g id="Notes">
  <rect height="2200" id="artboard" style="fill:white;opacity:1" width="3300" x="0" y="0"/>
  <line id="" style="fill:none;stroke:black;opacity:1;stroke-width:0.5;" x1="263" x2="3036" y1="292" y2="292"/>
  <text style="stroke:none;fill:black;font-family:-apple-system,&quot;SF Pro Display&quot;,&quot;SF Pro Text&quot;,Helvetica,sans-serif;font-weight:bold;" transform="matrix(1 0 0 1 263 322)">Weight/Scale Variations</text>
  <text style="stroke:none;fill:black;font-family:-apple-system,&quot;SF Pro Display&quot;,&quot;SF Pro Text&quot;,Helvetica,sans-serif;text-anchor:middle;" transform="matrix(1 0 0 1 559.711 322)">Ultralight</text>
  <text style="stroke:none;fill:black;font-family:-apple-system,&quot;SF Pro Display&quot;,&quot;SF Pro Text&quot;,Helvetica,sans-serif;text-anchor:middle;" transform="matrix(1 0 0 1 856.422 322)">Thin</text>
  <text style="stroke:none;fill:black;font-family:-apple-system,&quot;SF Pro Display&quot;,&quot;SF Pro Text&quot;,Helvetica,sans-serif;text-anchor:middle;" transform="matrix(1 0 0 1 1153.13 322)">Light</text>
  <text style="stroke:none;fill:black;font-family:-apple-system,&quot;SF Pro Display&quot;,&quot;SF Pro Text&quot;,Helvetica,sans-serif;text-anchor:middle;" transform="matrix(1 0 0 1 1449.84 322)">Regular</text>
  <text style="stroke:none;fill:black;font-family:-apple-system,&quot;SF Pro Display&quot;,&quot;SF Pro Text&quot;,Helvetica,sans-serif;text-anchor:middle;" transform="matrix(1 0 0 1 1746.56 322)">Medium</text>
  <text style="stroke:none;fill:black;font-family:-apple-system,&quot;SF Pro Display&quot;,&quot;SF Pro Text&quot;,Helvetica,sans-serif;text-anchor:middle;" transform="matrix(1 0 0 1 2043.27 322)">Semibold</text>
  <text style="stroke:none;fill:black;font-family:-apple-system,&quot;SF Pro Display&quot;,&quot;SF Pro Text&quot;,Helvetica,sans-serif;text-anchor:middle;" transform="matrix(1 0 0 1 2339.98 322)">Bold</text>
  <text style="stroke:none;fill:black;font-family:-apple-system,&quot;SF Pro Display&quot;,&quot;SF Pro Text&quot;,Helvetica,sans-serif;text-anchor:middle;" transform="matrix(1 0 0 1 2636.69 322)">Heavy</text>
  <text style="stroke:none;fill:black;font-family:-apple-system,&quot;SF Pro Display&quot;,&quot;SF Pro Text&quot;,Helvetica,sans-serif;text-anchor:middle;" transform="matrix(1 0 0 1 2933.4 322)">Black</text>
  <line id="" style="fill:none;stroke:black;opacity:1;stroke-width:0.5;" x1="263" x2="3036" y1="1903" y2="1903"/>
  <g id="" transform="matrix(1 0 0 1 263 1933)">
   <path d="M 9.24805 0.830078 C 13.5547 0.830078 17.1387 -2.74414 17.1387 -7.05078 C 17.1387 -11.3574 13.5449 -14.9316 9.23828 -14.9316 C 4.94141 -14.9316 1.36719 -11.3574 1.36719 -7.05078 C 1.36719 -2.74414 4.95117 0.830078 9.24805 0.830078 Z M 9.24805 -0.654297 C 5.70312 -0.654297 2.87109 -3.49609 2.87109 -7.05078 C 2.87109 -10.6055 5.69336 -13.4473 9.23828 -13.4473 C 12.793 -13.4473 15.6348 -10.6055 15.6445 -7.05078 C 15.6543 -3.49609 12.8027 -0.654297 9.24805 -0.654297 Z M 9.22852 -3.42773 C 9.69727 -3.42773 9.9707 -3.74023 9.9707 -4.25781 L 9.9707 -6.31836 L 12.1973 -6.31836 C 12.6953 -6.31836 13.0371 -6.57227 13.0371 -7.04102 C 13.0371 -7.51953 12.7148 -7.7832 12.1973 -7.7832 L 9.9707 -7.7832 L 9.9707 -10.0098 C 9.9707 -10.5273 9.69727 -10.8496 9.22852 -10.8496 C 8.75977 -10.8496 8.50586 -10.5078 8.50586 -10.0098 L 8.50586 -7.7832 L 6.29883 -7.7832 C 5.78125 -7.7832 5.44922 -7.51953 5.44922 -7.04102 C 5.44922 -6.57227 5.80078 -6.31836 6.29883 -6.31836 L 8.50586 -6.31836 L 8.50586 -4.25781 C 8.50586 -3.75977 8.75977 -3.42773 9.22852 -3.42773 Z"/>
  </g>
  <g id="" transform="matrix(1 0 0 1 281.506 1933)">
   <path d="M 11.709 2.91016 C 17.1582 2.91016 21.6699 -1.60156 21.6699 -7.05078 C 21.6699 -12.4902 17.1484 -17.0117 11.6992 -17.0117 C 6.25977 -17.0117 1.74805 -12.4902 1.74805 -7.05078 C 1.74805 -1.60156 6.26953 2.91016 11.709 2.91016 Z M 11.709 1.25 C 7.09961 1.25 3.41797 -2.44141 3.41797 -7.05078 C 3.41797 -11.6504 7.08984 -15.3516 11.6992 -15.3516 C 16.3086 -15.3516 20 -11.6504 20.0098 -7.05078 C 20.0195 -2.44141 16.3184 1.25 11.709 1.25 Z M 11.6895 -2.41211 C 12.207 -2.41211 12.5195 -2.77344 12.5195 -3.33984 L 12.5195 -6.23047 L 15.5762 -6.23047 C 16.123 -6.23047 16.5039 -6.51367 16.5039 -7.03125 C 16.5039 -7.55859 16.1426 -7.86133 15.5762 -7.86133 L 12.5195 -7.86133 L 12.5195 -10.9277 C 12.5195 -11.5039 12.207 -11.8555 11.6895 -11.8555 C 11.1719 -11.8555 10.8789 -11.4844 10.8789 -10.9277 L 10.8789 -7.86133 L 7.83203 -7.86133 C 7.26562 -7.86133 6.89453 -7.55859 6.89453 -7.03125 C 6.89453 -6.51367 7.28516 -6.23047 7.83203 -6.23047 L 10.8789 -6.23047 L 10.8789 -3.33984 C 10.8789 -2.79297 11.1719 -2.41211 11.6895 -2.41211 Z"/>
  </g>
  <g id="" transform="matrix(1 0 0 1 304.924 1933)">
   <path d="M 14.9707 5.67383 C 21.9336 5.67383 27.6953 -0.078125 27.6953 -7.04102 C 27.6953 -14.0039 21.9238 -19.7559 14.9609 -19.7559 C 8.00781 -19.7559 2.25586 -14.0039 2.25586 -7.04102 C 2.25586 -0.078125 8.01758 5.67383 14.9707 5.67383 Z M 14.9707 3.85742 C 8.93555 3.85742 4.08203 -1.00586 4.08203 -7.04102 C 4.08203 -13.0762 8.92578 -17.9395 14.9609 -17.9395 C 21.0059 -17.9395 25.8594 -13.0762 25.8691 -7.04102 C 25.8789 -1.00586 21.0156 3.85742 14.9707 3.85742 Z M 14.9512 -1.06445 C 15.5176 -1.06445 15.8691 -1.45508 15.8691 -2.06055 L 15.8691 -6.13281 L 20.1074 -6.13281 C 20.6934 -6.13281 21.1133 -6.46484 21.1133 -7.02148 C 21.1133 -7.59766 20.7227 -7.93945 20.1074 -7.93945 L 15.8691 -7.93945 L 15.8691 -12.1875 C 15.8691 -12.8027 15.5176 -13.1934 14.9512 -13.1934 C 14.3848 -13.1934 14.0625 -12.7832 14.0625 -12.1875 L 14.0625 -7.93945 L 9.83398 -7.93945 C 9.21875 -7.93945 8.80859 -7.59766 8.80859 -7.02148 C 8.80859 -6.46484 9.23828 -6.13281 9.83398 -6.13281 L 14.0625 -6.13281 L 14.0625 -2.06055 C 14.0625 -1.47461 14.3848 -1.06445 14.9512 -1.06445 Z"/>
  </g>
  <text style="stroke:none;fill:black;font-family:-apple-system,&quot;SF Pro Display&quot;,&quot;SF Pro Text&quot;,Helvetica,sans-serif;font-weight:bold;" transform="matrix(1 0 0 1 263 1953)">Design Variations</text>
  <text style="stroke:none;fill:black;font-family:-apple-system,&quot;SF Pro Display&quot;,&quot;SF Pro Text&quot;,Helvetica,sans-serif;" transform="matrix(1 0 0 1 263 1971)">Symbols are supported in up to nine weights and three scales.</text>
  <text style="stroke:none;fill:black;font-family:-apple-system,&quot;SF Pro Display&quot;,&quot;SF Pro Text&quot;,Helvetica,sans-serif;" transform="matrix(1 0 0 1 263 1989)">For optimal layout with text and other symbols, vertically align</text>
  <text style="stroke:none;fill:black;font-family:-apple-system,&quot;SF Pro Display&quot;,&quot;SF Pro Text&quot;,Helvetica,sans-serif;" transform="matrix(1 0 0 1 263 2007)">symbols with the adjacent text.</text>
  <rect height="14" id="" style="fill:#00AEEF;stroke:none;opacity:0.4;" width="3" x="776" y="1919"/>
  <g id="" transform="matrix(1 0 0 1 779 1933)">
   <path d="M 10.5273 0 L 12.373 0 L 7.17773 -14.0918 L 5.43945 -14.0918 L 0.244141 0 L 2.08984 0 L 3.50586 -4.0332 L 9.11133 -4.0332 Z M 6.2793 -11.9531 L 6.33789 -11.9531 L 8.59375 -5.52734 L 4.02344 -5.52734 Z"/>
  </g>
  <rect height="14" id="" style="fill:#00AEEF;stroke:none;opacity:0.4;" width="3" x="791.617" y="1919"/>
  <text style="stroke:none;fill:black;font-family:-apple-system,&quot;SF Pro Display&quot;,&quot;SF Pro Text&quot;,Helvetica,sans-serif;font-weight:bold;" transform="matrix(1 0 0 1 776 1953)">Margins</text>
  <text style="stroke:none;fill:black;font-family:-apple-system,&quot;SF Pro Display&quot;,&quot;SF Pro Text&quot;,Helvetica,sans-serif;" transform="matrix(1 0 0 1 776 1971)">Leading and trailing margins on the left and right side of each symbol</text>
  <text style="stroke:none;fill:black;font-family:-apple-system,&quot;SF Pro Display&quot;,&quot;SF Pro Text&quot;,Helvetica,sans-serif;" transform="matrix(1 0 0 1 776 1989)">can be adjusted by modifying the width of the blue rectangles.</text>
  <text style="stroke:none;fill:black;font-family:-apple-system,&quot;SF Pro Display&quot;,&quot;SF Pro Text&quot;,Helvetica,sans-serif;" transform="matrix(1 0 0 1 776 2007)">Modifications are automatically applied proportionally to all</text>
  <text style="stroke:none;fill:black;font-family:-apple-system,&quot;SF Pro Display&quot;,&quot;SF Pro Text&quot;,Helvetica,sans-serif;" transform="matrix(1 0 0 1 776 2025)">scales and weights.</text>
  <g id="" transform="matrix(1 0 0 1 1289 1933)">
   <path d="M 2.83203 3.11523 L 4.375 4.6582 C 5.22461 5.48828 6.19141 5.41992 7.06055 4.46289 L 17.2754 -6.66016 C 17.7051 -6.36719 18.0957 -6.37695 18.5645 -6.47461 L 19.6094 -6.68945 L 20.3027 -5.99609 L 20.2539 -5.47852 C 20.1855 -4.95117 20.3516 -4.53125 20.8496 -4.0332 L 21.6602 -3.22266 C 22.168 -2.71484 22.8223 -2.68555 23.3008 -3.16406 L 26.5527 -6.41602 C 27.0312 -6.89453 27.0117 -7.54883 26.5039 -8.05664 L 25.6836 -8.87695 C 25.1855 -9.375 24.7754 -9.55078 24.2383 -9.47266 L 23.7109 -9.41406 L 23.0566 -10.0781 L 23.3398 -11.2207 C 23.4863 -11.7871 23.3398 -12.2559 22.7148 -12.8613 L 20.3027 -15.2539 C 16.7578 -18.7793 12.2266 -18.6719 9.11133 -15.5371 C 8.69141 -15.1074 8.64258 -14.5215 8.91602 -14.0918 C 9.15039 -13.7207 9.62891 -13.4961 10.2734 -13.6621 C 11.7871 -14.043 13.3008 -13.9258 14.7852 -12.9199 L 14.1602 -11.3379 C 13.9258 -10.752 13.9453 -10.2734 14.1797 -9.83398 L 3.01758 0.439453 C 2.08008 1.30859 1.97266 2.25586 2.83203 3.11523 Z M 10.6738 -15.1465 C 13.3398 -17.1387 16.6504 -16.8262 19.0527 -14.4141 L 21.6797 -11.8066 C 21.9141 -11.5723 21.9434 -11.3867 21.8848 -11.0938 L 21.5039 -9.53125 L 23.0762 -7.95898 L 24.043 -8.04688 C 24.3262 -8.07617 24.4141 -8.05664 24.6387 -7.83203 L 25.2637 -7.20703 L 22.5098 -4.46289 L 21.8848 -5.07812 C 21.6602 -5.30273 21.6406 -5.40039 21.6699 -5.68359 L 21.7578 -6.64062 L 20.1953 -8.20312 L 18.5742 -7.89062 C 18.291 -7.83203 18.1445 -7.83203 17.9102 -8.07617 L 15.7324 -10.2539 C 15.5078 -10.4883 15.4785 -10.625 15.6055 -10.9473 L 16.5527 -13.2227 C 14.9512 -14.7559 12.8418 -15.6055 10.8008 -14.9512 C 10.7129 -14.9219 10.6445 -14.9414 10.6152 -14.9805 C 10.5859 -15.0293 10.5859 -15.0781 10.6738 -15.1465 Z M 4.10156 2.41211 C 3.61328 1.91406 3.78906 1.61133 4.12109 1.30859 L 15.0781 -8.80859 L 16.3086 -7.57812 L 6.15234 3.34961 C 5.84961 3.68164 5.46875 3.7793 5.06836 3.37891 Z"/>
  </g>
  <text style="stroke:none;fill:black;font-family:-apple-system,&quot;SF Pro Display&quot;,&quot;SF Pro Text&quot;,Helvetica,sans-serif;font-weight:bold;" transform="matrix(1 0 0 1 1289 1953)">Exporting</text>
  <text style="stroke:none;fill:black;font-family:-apple-system,&quot;SF Pro Display&quot;,&quot;SF Pro Text&quot;,Helvetica,sans-serif;" transform="matrix(1 0 0 1 1289 1971)">Symbols should be outlined when exporting to ensure the</text>
  <text style="stroke:none;fill:black;font-family:-apple-system,&quot;SF Pro Display&quot;,&quot;SF Pro Text&quot;,Helvetica,sans-serif;" transform="matrix(1 0 0 1 1289 1989)">design is preserved when submitting to Xcode.</text>
  <text id="template-version" style="stroke:none;fill:black;font-family:-apple-system,&quot;SF Pro Display&quot;,&quot;SF Pro Text&quot;,Helvetica,sans-serif;text-anchor:end;" transform="matrix(1 0 0 1 3036 1933)">Template v.1.0</text>
  <text style="stroke:none;fill:black;font-family:-apple-system,&quot;SF Pro Display&quot;,&quot;SF Pro Text&quot;,Helvetica,sans-serif;text-anchor:end;" transform="matrix(1 0 0 1 3036 1951)">Generated from doc.on.clipboard</text>
  <text style="stroke:none;fill:black;font-family:-apple-system,&quot;SF Pro Display&quot;,&quot;SF Pro Text&quot;,Helvetica,sans-serif;text-anchor:end;" transform="matrix(1 0 0 1 3036 1969)">Typeset at 100 points</text>
  <text style="stroke:none;fill:black;font-family:-apple-system,&quot;SF Pro Display&quot;,&quot;SF Pro Text&quot;,Helvetica,sans-serif;" transform="matrix(1 0 0 1 263 726)">Small</text>
  <text style="stroke:none;fill:black;font-family:-apple-system,&quot;SF Pro Display&quot;,&quot;SF Pro Text&quot;,Helvetica,sans-serif;" transform="matrix(1 0 0 1 263 1156)">Medium</text>
  <text style="stroke:none;fill:black;font-family:-apple-system,&quot;SF Pro Display&quot;,&quot;SF Pro Text&quot;,Helvetica,sans-serif;" transform="matrix(1 0 0 1 263 1586)">Large</text>
 </g>
 <g id="Guides">
  <g id="H-reference" style="fill:#27AAE1;stroke:none;" transform="matrix(1 0 0 1 339 696)">
   <path d="M 54.9316 0 L 57.666 0 L 30.5664 -70.459 L 28.0762 -70.459 L 0.976562 0 L 3.66211 0 L 12.9395 -24.4629 L 45.7031 -24.4629 Z M 29.1992 -67.0898 L 29.4434 -67.0898 L 44.8242 -26.709 L 13.8184 -26.709 Z"/>
  </g>
  <line id="Baseline-S" style="fill:none;stroke:#27AAE1;opacity:1;stroke-width:0.577;" x1="263" x2="3036" y1="696" y2="696"/>
  <line id="Capline-S" style="fill:none;stroke:#27AAE1;opacity:1;stroke-width:0.577;" x1="263" x2="3036" y1="625.541" y2="625.541"/>
  <g id="H-reference" style="fill:#27AAE1;stroke:none;" transform="matrix(1 0 0 1 339 1126)">
   <path d="M 54.9316 0 L 57.666 0 L 30.5664 -70.459 L 28.0762 -70.459 L 0.976562 0 L 3.66211 0 L 12.9395 -24.4629 L 45.7031 -24.4629 Z M 29.1992 -67.0898 L 29.4434 -67.0898 L 44.8242 -26.709 L 13.8184 -26.709 Z"/>
  </g>
  <line id="Baseline-M" style="fill:none;stroke:#27AAE1;opacity:1;stroke-width:0.577;" x1="263" x2="3036" y1="1126" y2="1126"/>
  <line id="Capline-M" style="fill:none;stroke:#27AAE1;opacity:1;stroke-width:0.577;" x1="263" x2="3036" y1="1055.54" y2="1055.54"/>
  <g id="H-reference" style="fill:#27AAE1;stroke:none;" transform="matrix(1 0 0 1 339 1556)">
   <path d="M 54.9316 0 L 57.666 0 L 30.5664 -70.459 L 28.0762 -70.459 L 0.976562 0 L 3.66211 0 L 12.9395 -24.4629 L 45.7031 -24.4629 Z M 29.1992 -67.0898 L 29.4434 -67.0898 L 44.8242 -26.709 L 13.8184 -26.709 Z"/>
  </g>
  <line id="Baseline-L" style="fill:none;stroke:#27AAE1;opacity:1;stroke-width:0.577;" x1="263" x2="3036" y1="1556" y2="1556"/>
  <line id="Capline-L" style="fill:none;stroke:#27AAE1;opacity:1;stroke-width:0.577;" x1="263" x2="3036" y1="1485.54" y2="1485.54"/>
  <rect height="119.336" id="left-margin" style="fill:#00AEEF;stroke:none;opacity:0.4;" width="12.4512" x="1386.37" y="1030.79"/>
  <rect height="119.336" id="right-margin" style="fill:#00AEEF;stroke:none;opacity:0.4;" width="12.4512" x="1500.87" y="1030.79"/>
 </g>
 <g id="Symbols">
  <g id="Black-L" transform="matrix(1 0 0 1 2844.61 1556)">
   <path d="M 39.8926 49.2676 L 101.221 49.2676 C 116.406 49.2676 125 40.625 125 25.3906 L 125 16.8945 L 137.695 16.8945 C 152.881 16.8945 161.523 8.20312 161.523 -7.03125 L 161.523 -96.6797 C 161.523 -111.914 152.881 -120.605 137.695 -120.605 L 76.123 -120.605 C 60.9375 -120.605 52.3438 -111.914 52.3438 -96.6797 L 52.3438 -85.1562 L 39.8926 -85.1562 C 24.707 -85.1562 16.0645 -76.5137 16.0645 -61.2793 L 16.0645 25.3906 C 16.0645 40.625 24.707 49.2676 39.8926 49.2676 Z M 91.9922 -95.166 C 88.5742 -95.166 87.0605 -98.0957 87.0605 -100.146 L 87.0605 -101.807 C 87.0605 -103.711 88.5742 -106.787 91.9922 -106.787 L 121.777 -106.787 C 125.146 -106.787 126.758 -103.711 126.758 -101.807 L 126.758 -100.146 C 126.758 -98.0957 125.146 -95.166 121.777 -95.166 Z M 42.7246 29.0527 C 38.1836 29.0527 36.3281 26.9043 36.3281 22.6562 L 36.3281 -58.5449 C 36.3281 -62.7441 38.1836 -64.9414 42.7246 -64.9414 L 58.8867 -64.9414 L 58.8867 -37.6465 C 58.8867 -24.8047 64.8438 -18.7988 77.6855 -18.7988 L 104.785 -18.7988 L 104.785 22.6562 C 104.785 26.9043 102.881 29.0527 98.3398 29.0527 Z M 79.0527 -34.7656 C 76.2207 -34.7656 74.8047 -36.1328 74.8047 -38.9648 L 74.8047 -63.9648 L 103.809 -34.7656 Z"/>
  </g>
  <g id="Heavy-L" transform="matrix(1 0 0 1 2549.65 1556)">
   <path d="M 38.7207 48.1445 L 100.195 48.1445 C 114.746 48.1445 122.656 39.9902 122.656 25.3906 L 122.656 16.0645 L 135.352 16.0645 C 149.902 16.0645 158.008 7.95898 158.008 -6.64062 L 158.008 -96.4355 C 158.008 -111.084 149.902 -119.189 135.352 -119.189 L 73.8281 -119.189 C 59.2773 -119.189 51.2207 -111.084 51.2207 -96.4355 L 51.2207 -84.8633 L 38.7207 -84.8633 C 24.1699 -84.8633 16.0645 -76.709 16.0645 -62.1094 L 16.0645 25.3906 C 16.0645 39.9902 24.1211 48.1445 38.7207 48.1445 Z M 89.6484 -94.7266 C 86.4746 -94.7266 85.0098 -97.3633 85.0098 -99.3164 L 85.0098 -100.928 C 85.0098 -102.783 86.4746 -105.518 89.6484 -105.518 L 119.482 -105.518 C 122.656 -105.518 124.17 -102.783 124.17 -100.928 L 124.17 -99.3164 C 124.17 -97.3633 122.656 -94.7266 119.482 -94.7266 Z M 40.9668 30.6152 C 35.8887 30.6152 33.5938 28.0762 33.5938 23.2422 L 33.5938 -59.9609 C 33.5938 -64.7949 35.8887 -67.334 41.0156 -67.334 L 58.7891 -67.334 L 58.7891 -37.6465 C 58.7891 -26.0742 64.2578 -20.6543 75.7812 -20.6543 L 105.176 -20.6543 L 105.176 23.2422 C 105.176 28.0762 102.881 30.6152 97.7539 30.6152 Z M 77.002 -34.7656 C 74.2188 -34.7656 72.8516 -36.084 72.8516 -38.916 L 72.8516 -66.2109 L 104.004 -34.7656 Z"/>
  </g>
  <g id="Bold-L" transform="matrix(1 0 0 1 2254.92 1556)">
   <path d="M 37.4023 46.8262 L 99.0234 46.8262 C 112.891 46.8262 120.068 39.2578 120.068 25.3418 L 120.068 15.1855 L 132.764 15.1855 C 146.582 15.1855 154.053 7.61719 154.053 -6.25 L 154.053 -96.1914 C 154.053 -110.107 146.533 -117.627 132.764 -117.627 L 71.2891 -117.627 C 57.4707 -117.627 49.9512 -110.107 49.9512 -96.1914 L 49.9512 -84.4727 L 37.4023 -84.4727 C 23.584 -84.4727 16.0645 -76.9531 16.0645 -63.0371 L 16.0645 25.3418 C 16.0645 39.3066 23.5352 46.8262 37.4023 46.8262 Z M 87.0605 -94.2383 C 84.082 -94.2383 82.7148 -96.5332 82.7148 -98.4375 L 82.7148 -99.9023 C 82.7148 -101.758 84.082 -104.102 87.0605 -104.102 L 116.895 -104.102 C 119.873 -104.102 121.289 -101.758 121.289 -99.9023 L 121.289 -98.4375 C 121.289 -96.5332 119.873 -94.2383 116.895 -94.2383 Z M 39.0137 32.373 C 33.252 32.373 30.5176 29.4434 30.5176 23.9258 L 30.5176 -61.5723 C 30.5176 -67.041 33.252 -70.0195 39.0625 -70.0195 L 58.6426 -70.0195 L 58.6426 -37.6953 C 58.6426 -27.5391 63.5254 -22.7539 73.6328 -22.7539 L 105.615 -22.7539 L 105.615 23.9258 C 105.615 29.4434 102.832 32.373 97.0703 32.373 Z M 74.7559 -34.7656 C 71.9727 -34.7656 70.7031 -36.0352 70.7031 -38.8184 L 70.7031 -68.7012 L 104.248 -34.7656 Z"/>
  </g>
  <g id="Semibold-L" transform="matrix(1 0 0 1 1959.58 1556)">
   <path d="M 36.4746 45.8984 L 98.2422 45.8984 C 111.621 45.8984 118.262 38.7695 118.262 25.3418 L 118.262 14.5508 L 130.957 14.5508 C 144.287 14.5508 151.318 7.42188 151.318 -6.00586 L 151.318 -95.9961 C 151.318 -109.424 144.238 -116.553 130.957 -116.553 L 69.4824 -116.553 C 56.2012 -116.553 49.0723 -109.424 49.0723 -95.9961 L 49.0723 -84.2285 L 36.4746 -84.2285 C 23.1445 -84.2285 16.0645 -77.0996 16.0645 -63.6719 L 16.0645 25.3418 C 16.0645 38.8184 23.0957 45.8984 36.4746 45.8984 Z M 85.3027 -93.8965 C 82.4707 -93.8965 81.1523 -95.9473 81.1523 -97.8516 L 81.1523 -99.2188 C 81.1523 -101.025 82.4707 -103.174 85.3027 -103.174 L 115.137 -103.174 C 117.969 -103.174 119.287 -101.025 119.287 -99.2188 L 119.287 -97.8516 C 119.287 -95.9473 117.969 -93.8965 115.137 -93.8965 Z M 37.6465 33.5938 C 31.4453 33.5938 28.418 30.3711 28.418 24.3652 L 28.418 -62.6953 C 28.418 -68.6035 31.4453 -71.875 37.6953 -71.875 L 58.5938 -71.875 L 58.5938 -37.6953 C 58.5938 -28.5156 63.0859 -24.1699 72.1191 -24.1699 L 105.908 -24.1699 L 105.908 24.3652 C 105.908 30.3711 102.832 33.5938 96.6309 33.5938 Z M 73.1934 -34.8145 C 70.4102 -34.8145 69.1895 -35.9863 69.1895 -38.7695 L 69.1895 -70.4102 L 104.443 -34.8145 Z"/>
  </g>
  <g id="Medium-L" transform="matrix(1 0 0 1 1663.89 1556)">
   <path d="M 35.791 45.2148 L 97.6562 45.2148 C 110.645 45.2148 116.895 38.4277 116.895 25.3418 L 116.895 14.1113 L 129.59 14.1113 C 142.529 14.1113 149.268 7.27539 149.268 -5.81055 L 149.268 -95.8496 C 149.268 -108.887 142.48 -115.723 129.59 -115.723 L 68.1641 -115.723 C 55.2246 -115.723 48.4375 -108.887 48.4375 -95.8496 L 48.4375 -84.0332 L 35.791 -84.0332 C 22.8516 -84.0332 16.0645 -77.1973 16.0645 -64.1602 L 16.0645 25.3418 C 16.0645 38.4766 22.8027 45.2148 35.791 45.2148 Z M 83.9355 -93.6523 C 81.2012 -93.6523 79.9316 -95.5566 79.9316 -97.3633 L 79.9316 -98.6816 C 79.9316 -100.488 81.2012 -102.441 83.9355 -102.441 L 113.77 -102.441 C 116.504 -102.441 117.773 -100.488 117.773 -98.6816 L 117.773 -97.3633 C 117.773 -95.5566 116.504 -93.6523 113.77 -93.6523 Z M 36.6211 34.4727 C 30.127 34.4727 26.8066 31.0547 26.8066 24.707 L 26.8066 -63.5254 C 26.8066 -69.7754 30.127 -73.291 36.6699 -73.291 L 58.5449 -73.291 L 58.5449 -37.6953 C 58.5449 -29.248 62.6953 -25.2441 70.9961 -25.2441 L 106.152 -25.2441 L 106.152 24.707 C 106.152 31.0547 102.832 34.4727 96.2891 34.4727 Z M 72.0215 -34.8145 C 69.2383 -34.8145 68.0664 -35.9375 68.0664 -38.7207 L 68.0664 -71.7285 L 104.541 -34.8145 Z"/>
  </g>
  <g id="Regular-L" transform="matrix(1 0 0 1 1368.52 1556)">
   <path d="M 34.8633 44.3359 L 96.875 44.3359 C 109.375 44.3359 115.088 37.9395 115.088 25.3418 L 115.088 13.4766 L 127.783 13.4766 C 140.283 13.4766 146.582 7.08008 146.582 -5.51758 L 146.582 -95.6543 C 146.582 -108.252 140.234 -114.648 127.783 -114.648 L 66.4062 -114.648 C 53.9551 -114.648 47.5586 -108.252 47.5586 -95.6543 L 47.5586 -83.7891 L 34.8633 -83.7891 C 22.4609 -83.7891 16.0645 -77.3926 16.0645 -64.7949 L 16.0645 25.3418 C 16.0645 37.9883 22.3633 44.3359 34.8633 44.3359 Z M 82.1777 -93.3105 C 79.5898 -93.3105 78.3691 -94.9707 78.3691 -96.7773 L 78.3691 -97.998 C 78.3691 -99.8047 79.5898 -101.465 82.1777 -101.465 L 112.012 -101.465 C 114.6 -101.465 115.82 -99.8047 115.82 -97.998 L 115.82 -96.7773 C 115.82 -94.9707 114.6 -93.3105 112.012 -93.3105 Z M 35.3027 35.6934 C 28.3203 35.6934 24.707 31.9824 24.707 25.1465 L 24.707 -64.5996 C 24.707 -71.2891 28.3203 -75.1465 35.3516 -75.1465 L 58.4473 -75.1465 L 58.4473 -37.7441 C 58.4473 -30.2734 62.207 -26.6602 69.5312 -26.6602 L 106.445 -26.6602 L 106.445 25.1465 C 106.445 31.9824 102.832 35.6934 95.8008 35.6934 Z M 70.459 -34.8145 C 67.7246 -34.8145 66.6016 -35.9375 66.6016 -38.6719 L 66.6016 -73.4375 L 104.688 -34.8145 Z"/>
  </g>
  <g id="Light-L" transform="matrix(1 0 0 1 1072.59 1556)">
   <path d="M 33.9355 43.6035 L 97.0215 43.6035 C 108.838 43.6035 113.916 37.5 113.916 25.6348 L 113.916 13.5254 L 127.197 13.5254 C 138.965 13.5254 145.02 7.42188 145.02 -4.44336 L 145.02 -95.9473 C 145.02 -107.764 138.867 -113.916 127.197 -113.916 L 65.0391 -113.916 C 53.3691 -113.916 47.2168 -107.764 47.2168 -95.9473 L 47.2168 -83.7891 L 33.9355 -83.7891 C 22.2168 -83.7891 16.0645 -77.6855 16.0645 -65.8203 L 16.0645 25.6348 C 16.0645 37.5488 22.1191 43.6035 33.9355 43.6035 Z M 81.7871 -93.7012 C 79.4434 -93.7012 78.3203 -95.2148 78.3203 -96.8262 L 78.3203 -97.998 C 78.3203 -99.5605 79.4434 -101.123 81.7871 -101.123 L 110.449 -101.123 C 112.793 -101.123 113.916 -99.5605 113.916 -97.998 L 113.916 -96.8262 C 113.916 -95.2148 112.793 -93.7012 110.449 -93.7012 Z M 34.2285 37.0117 C 26.6113 37.0117 22.7051 33.0078 22.7051 25.4883 L 22.7051 -65.6738 C 22.7051 -72.998 26.6113 -77.1973 34.2773 -77.1973 L 59.0332 -77.1973 L 59.0332 -38.623 C 59.0332 -31.7871 62.4512 -28.6133 68.9941 -28.6133 L 107.275 -28.6133 L 107.275 25.4883 C 107.275 33.0078 103.32 37.0117 95.7031 37.0117 Z M 69.6777 -34.9121 C 66.5527 -34.9121 65.332 -36.1328 65.332 -39.2578 L 65.332 -75.7812 L 105.859 -34.9121 Z"/>
  </g>
  <g id="Thin-L" transform="matrix(1 0 0 1 776.906 1556)">
   <path d="M 32.666 42.6758 L 97.2168 42.6758 C 108.105 42.6758 112.354 36.9141 112.354 26.0742 L 112.354 13.623 L 126.367 13.623 C 137.256 13.623 142.969 7.86133 142.969 -2.97852 L 142.969 -96.2891 C 142.969 -107.178 137.109 -112.891 126.367 -112.891 L 63.2812 -112.891 C 52.5391 -112.891 46.6797 -107.178 46.6797 -96.2891 L 46.6797 -83.8379 L 32.666 -83.8379 C 21.9238 -83.8379 16.0645 -78.125 16.0645 -67.2363 L 16.0645 26.0742 C 16.0645 36.9629 21.7773 42.6758 32.666 42.6758 Z M 81.25 -94.2383 C 79.248 -94.2383 78.2715 -95.5566 78.2715 -96.9238 L 78.2715 -97.9492 C 78.2715 -99.2676 79.248 -100.635 81.25 -100.635 L 108.398 -100.635 C 110.4 -100.635 111.377 -99.2676 111.377 -97.9492 L 111.377 -96.9238 C 111.377 -95.5566 110.4 -94.2383 108.398 -94.2383 Z M 32.8613 38.7207 C 24.3652 38.7207 19.9707 34.3262 19.9707 25.8789 L 19.9707 -67.0898 C 19.9707 -75.1953 24.3652 -79.9316 32.8613 -79.9316 L 59.7656 -79.9316 L 59.7656 -39.7949 C 59.7656 -33.7891 62.793 -31.2012 68.3594 -31.2012 L 108.398 -31.2012 L 108.398 25.8789 C 108.398 34.3262 104.004 38.7207 95.5566 38.7207 Z M 68.6035 -35.0586 C 65.0391 -35.0586 63.623 -36.4746 63.623 -40.0391 L 63.623 -78.9062 L 107.422 -35.0586 Z"/>
  </g>
  <g id="Ultralight-L" transform="matrix(1 0 0 1 480.732 1556)">
   <path d="M 31.9824 42.1875 L 97.3145 42.1875 C 107.715 42.1875 111.523 36.6699 111.523 26.2695 L 111.523 13.623 L 125.977 13.623 C 136.328 13.623 141.895 8.10547 141.895 -2.24609 L 141.895 -96.4844 C 141.895 -106.836 136.182 -112.402 125.977 -112.402 L 62.3535 -112.402 C 52.1484 -112.402 46.4355 -106.836 46.4355 -96.4844 L 46.4355 -83.8379 L 31.9824 -83.8379 C 21.7773 -83.8379 16.0645 -78.3203 16.0645 -67.9199 L 16.0645 26.2695 C 16.0645 36.6211 21.6309 42.1875 31.9824 42.1875 Z M 81.0059 -94.5312 C 79.1504 -94.5312 78.2227 -95.752 78.2227 -96.9727 L 78.2227 -97.9004 C 78.2227 -99.1211 79.1504 -100.391 81.0059 -100.391 L 107.324 -100.391 C 109.18 -100.391 110.107 -99.1211 110.107 -97.9004 L 110.107 -96.9727 C 110.107 -95.752 109.18 -94.5312 107.324 -94.5312 Z M 32.1289 39.6484 C 23.2422 39.6484 18.6035 35.0098 18.6035 26.123 L 18.6035 -67.7734 C 18.6035 -76.3672 23.2422 -81.2988 32.1289 -81.2988 L 60.1562 -81.2988 L 60.1562 -40.3809 C 60.1562 -34.8145 62.9395 -32.5195 68.0176 -32.5195 L 108.984 -32.5195 L 108.984 26.123 C 108.984 35.0098 104.395 39.6484 95.459 39.6484 Z M 68.0664 -35.1562 C 64.2578 -35.1562 62.793 -36.6211 62.793 -40.4297 L 62.793 -80.5176 L 108.203 -35.1562 Z"/>
  </g>
  <g id="Black-M" transform="matrix(1 0 0 1 2862.65 1126)">
   <path d="M 31.9824 31.4453 L 79.8828 31.4453 C 92.1387 31.4453 99.4141 24.1699 99.4141 11.9141 L 99.4141 6.29883 L 109.521 6.29883 C 121.777 6.29883 129.053 -0.976562 129.053 -13.2324 L 129.053 -83.3496 C 129.053 -95.6055 121.777 -102.881 109.521 -102.881 L 61.377 -102.881 C 49.1211 -102.881 41.8457 -95.6055 41.8457 -83.3496 L 41.8457 -74.3652 L 31.9824 -74.3652 C 19.7266 -74.3652 12.4512 -67.0898 12.4512 -54.834 L 12.4512 11.9141 C 12.4512 24.1699 19.7266 31.4453 31.9824 31.4453 Z M 74.2188 -82.5195 C 71.4355 -82.5195 70.2148 -85.1074 70.2148 -86.6211 L 70.2148 -88.0371 C 70.2148 -89.4531 71.4355 -92.1387 74.2188 -92.1387 L 96.6309 -92.1387 C 99.4141 -92.1387 100.732 -89.4531 100.732 -88.0371 L 100.732 -86.6211 C 100.732 -85.1074 99.4141 -82.5195 96.6309 -82.5195 Z M 34.9121 13.1836 C 31.8359 13.1836 30.7617 11.8164 30.7617 8.98438 L 30.7617 -51.9043 C 30.7617 -54.7363 31.8359 -56.1035 34.9121 -56.1035 L 46.0938 -56.1035 L 46.0938 -37.5488 C 46.0938 -26.2207 51.2207 -21.0449 62.5488 -21.0449 L 81.1035 -21.0449 L 81.1035 8.98438 C 81.1035 11.8164 80.0293 13.1836 76.9531 13.1836 Z M 63.5742 -34.9121 C 61.1816 -34.9121 59.9121 -36.1328 59.9121 -38.5254 L 59.9121 -55.7617 L 80.7617 -34.9121 Z"/>
  </g>
  <g id="Heavy-M" transform="matrix(1 0 0 1 2567.65 1126)">
   <path d="M 30.957 30.3711 L 78.7109 30.3711 C 90.4785 30.3711 97.168 23.584 97.168 11.8164 L 97.168 5.37109 L 107.129 5.37109 C 118.896 5.37109 125.635 -1.36719 125.635 -13.1348 L 125.635 -83.0078 C 125.635 -94.7754 118.896 -101.562 107.129 -101.562 L 59.2285 -101.562 C 47.5098 -101.562 40.7227 -94.7754 40.7227 -83.0078 L 40.7227 -74.0234 L 30.957 -74.0234 C 19.1895 -74.0234 12.4512 -67.2363 12.4512 -55.4688 L 12.4512 11.8164 C 12.4512 23.6328 19.1895 30.3711 30.957 30.3711 Z M 71.7773 -81.9336 C 69.1895 -81.9336 67.9688 -84.2285 67.9688 -85.7422 L 67.9688 -87.0605 C 67.9688 -88.4766 69.1895 -90.8691 71.7773 -90.8691 L 94.5312 -90.8691 C 97.168 -90.8691 98.3887 -88.4766 98.3887 -87.0605 L 98.3887 -85.7422 C 98.3887 -84.2285 97.168 -81.9336 94.5312 -81.9336 Z M 33.252 14.5508 C 29.7363 14.5508 28.2715 12.8906 28.2715 9.57031 L 28.2715 -53.2227 C 28.2715 -56.4941 29.7363 -58.2031 33.3008 -58.2031 L 45.8008 -58.2031 L 45.8008 -37.3535 C 45.8008 -27.2461 50.4883 -22.5586 60.5957 -22.5586 L 81.3477 -22.5586 L 81.3477 9.57031 C 81.3477 12.8906 79.8828 14.5508 76.3184 14.5508 Z M 61.5723 -34.8633 C 59.2773 -34.8633 58.1055 -36.0352 58.1055 -38.3301 L 58.1055 -57.5684 L 80.7129 -34.8633 Z"/>
  </g>
  <g id="Bold-M" transform="matrix(1 0 0 1 2272.86 1126)">
   <path d="M 29.7852 29.1504 L 77.4414 29.1504 C 88.623 29.1504 94.6289 22.9492 94.6289 11.7188 L 94.6289 4.39453 L 104.443 4.39453 C 115.625 4.39453 121.777 -1.80664 121.777 -13.0371 L 121.777 -82.6172 C 121.777 -93.8477 115.625 -100.049 104.443 -100.049 L 56.7871 -100.049 C 45.6543 -100.049 39.4531 -93.8477 39.4531 -82.6172 L 39.4531 -73.6328 L 29.7852 -73.6328 C 18.6035 -73.6328 12.4512 -67.3828 12.4512 -56.2012 L 12.4512 11.7188 C 12.4512 22.9492 18.6035 29.1504 29.7852 29.1504 Z M 69.043 -81.25 C 66.6016 -81.25 65.4785 -83.252 65.4785 -84.7656 L 65.4785 -85.9863 C 65.4785 -87.4023 66.6016 -89.4531 69.043 -89.4531 L 92.1875 -89.4531 C 94.6289 -89.4531 95.752 -87.4023 95.752 -85.9863 L 95.752 -84.7656 C 95.752 -83.252 94.6289 -81.25 92.1875 -81.25 Z M 31.4453 16.0645 C 27.3926 16.0645 25.5371 14.0625 25.5371 10.2051 L 25.5371 -54.6387 C 25.5371 -58.4961 27.3926 -60.5469 31.4453 -60.5469 L 45.5078 -60.5469 L 45.5078 -37.1094 C 45.5078 -28.3691 49.6582 -24.2676 58.3496 -24.2676 L 81.543 -24.2676 L 81.543 10.2051 C 81.543 14.0625 79.7363 16.0645 75.6348 16.0645 Z M 59.3262 -34.8633 C 57.1289 -34.8633 56.1035 -35.8887 56.1035 -38.0371 L 56.1035 -59.6191 L 80.6152 -34.8633 Z"/>
  </g>
  <g id="Semibold-M" transform="matrix(1 0 0 1 1977.47 1126)">
   <path d="M 29.0039 28.3203 L 76.5625 28.3203 C 87.3535 28.3203 92.9199 22.5098 92.9199 11.6699 L 92.9199 3.71094 L 102.588 3.71094 C 113.379 3.71094 119.141 -2.14844 119.141 -12.9883 L 119.141 -82.373 C 119.141 -93.2129 113.379 -99.0234 102.588 -99.0234 L 55.127 -99.0234 C 44.3848 -99.0234 38.623 -93.2129 38.623 -82.373 L 38.623 -73.3398 L 29.0039 -73.3398 C 18.2129 -73.3398 12.4512 -67.5293 12.4512 -56.6895 L 12.4512 11.6699 C 12.4512 22.5098 18.2129 28.3203 29.0039 28.3203 Z M 67.1875 -80.8105 C 64.8438 -80.8105 63.7695 -82.5684 63.7695 -84.082 L 63.7695 -85.2051 C 63.7695 -86.6699 64.8438 -88.4766 67.1875 -88.4766 L 90.5762 -88.4766 C 92.8711 -88.4766 93.9941 -86.6699 93.9941 -85.2051 L 93.9941 -84.082 C 93.9941 -82.5684 92.8711 -80.8105 90.5762 -80.8105 Z M 30.1758 17.1387 C 25.7324 17.1387 23.6328 14.8438 23.6328 10.6445 L 23.6328 -55.6641 C 23.6328 -59.8633 25.7324 -62.1582 30.1758 -62.1582 L 45.3125 -62.1582 L 45.3125 -36.9629 C 45.3125 -29.1504 49.0723 -25.4395 56.8359 -25.4395 L 81.7383 -25.4395 L 81.7383 10.6445 C 81.7383 14.8438 79.5898 17.1387 75.1465 17.1387 Z M 57.7637 -34.8633 C 55.6641 -34.8633 54.7363 -35.791 54.7363 -37.8906 L 54.7363 -61.0352 L 80.5664 -34.8633 Z"/>
  </g>
  <g id="Medium-M" transform="matrix(1 0 0 1 1681.76 1126)">
   <path d="M 28.3691 27.6855 L 75.8789 27.6855 C 86.377 27.6855 91.6016 22.168 91.6016 11.6211 L 91.6016 3.17383 L 101.221 3.17383 C 111.67 3.17383 117.139 -2.34375 117.139 -12.8906 L 117.139 -82.1777 C 117.139 -92.7246 111.67 -98.2422 101.221 -98.2422 L 53.8574 -98.2422 C 43.4082 -98.2422 37.9395 -92.7246 37.9395 -82.1777 L 37.9395 -73.1445 L 28.3691 -73.1445 C 17.9199 -73.1445 12.4512 -67.5781 12.4512 -57.0312 L 12.4512 11.6211 C 12.4512 22.168 17.9199 27.6855 28.3691 27.6855 Z M 65.7715 -80.4688 C 63.5254 -80.4688 62.4512 -82.0312 62.4512 -83.5449 L 62.4512 -84.668 C 62.4512 -86.1328 63.5254 -87.7441 65.7715 -87.7441 L 89.3066 -87.7441 C 91.5527 -87.7441 92.627 -86.1328 92.627 -84.668 L 92.627 -83.5449 C 92.627 -82.0312 91.5527 -80.4688 89.3066 -80.4688 Z M 29.1992 17.9199 C 24.5117 17.9199 22.168 15.4785 22.168 10.9863 L 22.168 -56.3965 C 22.168 -60.8887 24.5117 -63.3789 29.248 -63.3789 L 45.166 -63.3789 L 45.166 -36.8164 C 45.166 -29.7363 48.6328 -26.3184 55.6641 -26.3184 L 81.8359 -26.3184 L 81.8359 10.9863 C 81.8359 15.4785 79.4922 17.9199 74.8047 17.9199 Z M 56.5918 -34.8633 C 54.5898 -34.8633 53.7109 -35.7422 53.7109 -37.7441 L 53.7109 -62.1094 L 80.5664 -34.8633 Z"/>
  </g>
  <g id="Regular-M" transform="matrix(1 0 0 1 1386.37 1126)">
   <path d="M 27.5879 26.8555 L 75 26.8555 C 85.1074 26.8555 89.8438 21.7285 89.8438 11.5234 L 89.8438 2.49023 L 99.3652 2.49023 C 109.473 2.49023 114.502 -2.63672 114.502 -12.8418 L 114.502 -81.8848 C 114.502 -92.0898 109.424 -97.2168 99.3652 -97.2168 L 52.2461 -97.2168 C 42.1875 -97.2168 37.1094 -92.0898 37.1094 -81.8848 L 37.1094 -72.8516 L 27.5879 -72.8516 C 17.5293 -72.8516 12.4512 -67.7246 12.4512 -57.5195 L 12.4512 11.5234 C 12.4512 21.7773 17.4805 26.8555 27.5879 26.8555 Z M 63.916 -79.9805 C 61.7676 -79.9805 60.791 -81.3965 60.791 -82.8613 L 60.791 -83.8867 C 60.791 -85.4004 61.7676 -86.7676 63.916 -86.7676 L 87.6953 -86.7676 C 89.8438 -86.7676 90.8203 -85.4004 90.8203 -83.8867 L 90.8203 -82.8613 C 90.8203 -81.3965 89.8438 -79.9805 87.6953 -79.9805 Z M 27.9297 18.9941 C 22.9004 18.9941 20.3125 16.2598 20.3125 11.377 L 20.3125 -57.4219 C 20.3125 -62.207 22.9004 -64.9902 27.9785 -64.9902 L 44.9707 -64.9902 L 44.9707 -36.6699 C 44.9707 -30.5176 48.0957 -27.4902 54.1504 -27.4902 L 81.9824 -27.4902 L 81.9824 11.377 C 81.9824 16.2598 79.3945 18.9941 74.3164 18.9941 Z M 55.0781 -34.8633 C 53.125 -34.8633 52.3438 -35.6445 52.3438 -37.5488 L 52.3438 -63.4766 L 80.4688 -34.8633 Z"/>
  </g>
  <g id="Light-M" transform="matrix(1 0 0 1 1090.36 1126)">
   <path d="M 26.709 26.2207 L 75.1465 26.2207 C 84.5703 26.2207 88.8184 21.3379 88.8184 11.8164 L 88.8184 2.53906 L 98.8281 2.53906 C 108.301 2.53906 113.086 -2.34375 113.086 -11.8652 L 113.086 -82.1289 C 113.086 -91.6504 108.252 -96.5332 98.8281 -96.5332 L 51.0254 -96.5332 C 41.6016 -96.5332 36.7676 -91.6504 36.7676 -82.1289 L 36.7676 -72.8516 L 26.709 -72.8516 C 17.334 -72.8516 12.4512 -68.0176 12.4512 -58.4961 L 12.4512 11.8164 C 12.4512 21.3379 17.2852 26.2207 26.709 26.2207 Z M 63.5254 -80.3711 C 61.6211 -80.3711 60.7422 -81.5918 60.7422 -82.9102 L 60.7422 -83.8867 C 60.7422 -85.2051 61.6211 -86.4258 63.5254 -86.4258 L 86.2793 -86.4258 C 88.2324 -86.4258 89.1113 -85.2051 89.1113 -83.8867 L 89.1113 -82.9102 C 89.1113 -81.5918 88.2324 -80.3711 86.2793 -80.3711 Z M 27.002 20.166 C 21.3867 20.166 18.5059 17.1875 18.5059 11.6699 L 18.5059 -58.3496 C 18.5059 -63.7207 21.3867 -66.8457 27.0508 -66.8457 L 45.459 -66.8457 L 45.459 -37.4512 C 45.459 -31.8848 48.291 -29.248 53.7109 -29.248 L 82.7637 -29.248 L 82.7637 11.6699 C 82.7637 17.1875 79.834 20.166 74.2188 20.166 Z M 54.3457 -34.9609 C 52.0996 -34.9609 51.2207 -35.8398 51.2207 -38.0859 L 51.2207 -65.625 L 81.543 -34.9609 Z"/>
  </g>
  <g id="Thin-M" transform="matrix(1 0 0 1 794.581 1126)">
   <path d="M 25.5859 25.3418 L 75.293 25.3418 C 83.9355 25.3418 87.4023 20.8008 87.4023 12.1582 L 87.4023 2.58789 L 98.0957 2.58789 C 106.738 2.58789 111.23 -1.9043 111.23 -10.5469 L 111.23 -82.4707 C 111.23 -91.1133 106.641 -95.6543 98.0957 -95.6543 L 49.4141 -95.6543 C 40.918 -95.6543 36.2793 -91.1133 36.2793 -82.4707 L 36.2793 -72.9004 L 25.5859 -72.9004 C 17.041 -72.9004 12.4512 -68.3594 12.4512 -59.7168 L 12.4512 12.1582 C 12.4512 20.8496 16.9434 25.3418 25.5859 25.3418 Z M 63.0859 -80.8594 C 61.4746 -80.8594 60.6445 -81.9336 60.6445 -83.0078 L 60.6445 -83.8379 C 60.6445 -84.9121 61.4746 -86.0352 63.0859 -86.0352 L 84.4238 -86.0352 C 86.084 -86.0352 86.8652 -84.9121 86.8652 -83.8379 L 86.8652 -83.0078 C 86.8652 -81.9336 86.084 -80.8594 84.4238 -80.8594 Z M 25.7324 21.7285 C 19.3848 21.7285 16.0645 18.4082 16.0645 12.0605 L 16.0645 -59.6191 C 16.0645 -65.7227 19.3848 -69.2871 25.7812 -69.2871 L 46.1426 -69.2871 L 46.1426 -38.5254 C 46.1426 -33.6914 48.584 -31.543 53.125 -31.543 L 83.7891 -31.543 L 83.7891 12.0605 C 83.7891 18.4082 80.4688 21.7285 74.0723 21.7285 Z M 53.418 -35.0586 C 50.7324 -35.0586 49.707 -36.1328 49.707 -38.8184 L 49.707 -68.4082 L 82.9102 -35.0586 Z"/>
  </g>
  <g id="Ultralight-M" transform="matrix(1 0 0 1 498.334 1126)">
   <path d="M 25 24.9023 L 75.3906 24.9023 C 83.5938 24.9023 86.6699 20.5566 86.6699 12.3535 L 86.6699 2.63672 L 97.7539 2.63672 C 105.957 2.63672 110.303 -1.70898 110.303 -9.91211 L 110.303 -82.6172 C 110.303 -90.8203 105.811 -95.166 97.7539 -95.166 L 48.584 -95.166 C 40.5273 -95.166 36.0352 -90.8203 36.0352 -82.6172 L 36.0352 -72.9004 L 25 -72.9004 C 16.9434 -72.9004 12.4512 -68.5547 12.4512 -60.3516 L 12.4512 12.3535 C 12.4512 20.5566 16.7969 24.9023 25 24.9023 Z M 62.8418 -81.1035 C 61.377 -81.1035 60.6445 -82.0801 60.6445 -83.0566 L 60.6445 -83.7891 C 60.6445 -84.8145 61.377 -85.791 62.8418 -85.791 L 83.4961 -85.791 C 84.9609 -85.791 85.6934 -84.8145 85.6934 -83.7891 L 85.6934 -83.0566 C 85.6934 -82.0801 84.9609 -81.1035 83.4961 -81.1035 Z M 25.0977 22.5098 C 18.3594 22.5098 14.8438 18.9941 14.8438 12.2559 L 14.8438 -60.2539 C 14.8438 -66.748 18.3594 -70.5078 25.0977 -70.5078 L 46.4844 -70.5078 L 46.4844 -39.0625 C 46.4844 -34.5703 48.7305 -32.7637 52.832 -32.7637 L 84.2773 -32.7637 L 84.2773 12.2559 C 84.2773 18.9941 80.7617 22.5098 74.0234 22.5098 Z M 52.9297 -35.1562 C 50.0488 -35.1562 48.9258 -36.2793 48.9258 -39.1602 L 48.9258 -69.8242 L 83.6426 -35.1562 Z"/>
  </g>
  <g id="Black-S" transform="matrix(1 0 0 1 2878.08 696)">
   <path d="M 25 16.9434 L 62.5 16.9434 C 72.0703 16.9434 77.7344 11.2793 77.7344 1.70898 L 77.7344 -2.7832 L 85.6445 -2.7832 C 95.2148 -2.7832 100.879 -8.44727 100.879 -18.0176 L 100.879 -72.9004 C 100.879 -82.4707 95.2148 -88.1348 85.6445 -88.1348 L 47.9492 -88.1348 C 38.3789 -88.1348 32.7148 -82.4707 32.7148 -72.9004 L 32.7148 -65.8691 L 25 -65.8691 C 15.4297 -65.8691 9.76562 -60.2051 9.76562 -50.6348 L 9.76562 1.70898 C 9.76562 11.2793 15.4297 16.9434 25 16.9434 Z M 57.959 -72.2168 C 55.8105 -72.2168 54.834 -74.2188 54.834 -75.4395 L 54.834 -76.5137 C 54.834 -77.6367 55.8105 -79.7363 57.959 -79.7363 L 75.5859 -79.7363 C 77.7344 -79.7363 78.7598 -77.6367 78.7598 -76.5137 L 78.7598 -75.4395 C 78.7598 -74.2188 77.7344 -72.2168 75.5859 -72.2168 Z M 27.2461 2.7832 C 24.8047 2.7832 23.9258 1.70898 23.9258 -0.537109 L 23.9258 -48.3887 C 23.9258 -50.6348 24.8047 -51.709 27.2461 -51.709 L 36.084 -51.709 L 36.084 -37.0117 C 36.084 -28.2227 40.0879 -24.2188 48.877 -24.2188 L 63.5742 -24.2188 L 63.5742 -0.537109 C 63.5742 1.70898 62.6953 2.7832 60.2539 2.7832 Z M 49.6582 -34.9609 C 47.8027 -34.9609 46.8262 -35.9375 46.8262 -37.793 L 46.8262 -51.416 L 63.2812 -34.9609 Z"/>
  </g>
  <g id="Heavy-S" transform="matrix(1 0 0 1 2582.61 696)">
   <path d="M 24.3164 16.1621 L 61.6211 16.1621 C 70.8496 16.1621 76.123 10.8887 76.123 1.61133 L 76.123 -3.4668 L 83.8867 -3.4668 C 93.1152 -3.4668 98.3887 -8.78906 98.3887 -18.0664 L 98.3887 -72.6074 C 98.3887 -81.8848 93.1152 -87.207 83.8867 -87.207 L 46.4355 -87.207 C 37.207 -87.207 31.8848 -81.8848 31.8848 -72.6074 L 31.8848 -65.5762 L 24.3164 -65.5762 C 15.0391 -65.5762 9.76562 -60.3027 9.76562 -51.0254 L 9.76562 1.61133 C 9.76562 10.8887 15.0391 16.1621 24.3164 16.1621 Z M 56.1523 -71.7285 C 54.1016 -71.7285 53.125 -73.5352 53.125 -74.7559 L 53.125 -75.7812 C 53.125 -76.9043 54.1016 -78.8086 56.1523 -78.8086 L 74.1211 -78.8086 C 76.1719 -78.8086 77.1484 -76.9043 77.1484 -75.7812 L 77.1484 -74.7559 C 77.1484 -73.5352 76.1719 -71.7285 74.1211 -71.7285 Z M 26.0742 3.71094 C 23.3887 3.71094 22.2656 2.39258 22.2656 -0.146484 L 22.2656 -49.2676 C 22.2656 -51.8066 23.3887 -53.125 26.123 -53.125 L 35.8398 -53.125 L 35.8398 -36.7676 C 35.8398 -28.8574 39.502 -25.1953 47.4121 -25.1953 L 63.6719 -25.1953 L 63.6719 -0.146484 C 63.6719 2.39258 62.5488 3.71094 59.7656 3.71094 Z M 48.1934 -34.9609 C 46.4844 -34.9609 45.6055 -35.8398 45.6055 -37.5488 L 45.6055 -52.5879 L 63.1348 -34.9609 Z"/>
  </g>
  <g id="Bold-S" transform="matrix(1 0 0 1 2287.27 696)">
   <path d="M 23.5352 15.332 L 60.5957 15.332 C 69.4824 15.332 74.3164 10.4004 74.3164 1.46484 L 74.3164 -4.24805 L 81.8848 -4.24805 C 90.7715 -4.24805 95.6543 -9.17969 95.6543 -18.0664 L 95.6543 -72.2656 C 95.6543 -81.2012 90.7715 -86.1328 81.8848 -86.1328 L 44.7266 -86.1328 C 35.8398 -86.1328 30.957 -81.2012 30.957 -72.2656 L 30.957 -65.2832 L 23.5352 -65.2832 C 14.6484 -65.2832 9.76562 -60.3516 9.76562 -51.4648 L 9.76562 1.46484 C 9.76562 10.4492 14.6484 15.332 23.5352 15.332 Z M 54.1016 -71.1914 C 52.1484 -71.1914 51.2207 -72.7539 51.2207 -73.9746 L 51.2207 -74.9512 C 51.2207 -76.123 52.1484 -77.7344 54.1016 -77.7344 L 72.5098 -77.7344 C 74.4629 -77.7344 75.3906 -76.123 75.3906 -74.9512 L 75.3906 -73.9746 C 75.3906 -72.7539 74.4629 -71.1914 72.5098 -71.1914 Z M 24.8047 4.73633 C 21.7773 4.73633 20.3613 3.17383 20.3613 0.292969 L 20.3613 -50.293 C 20.3613 -53.125 21.7773 -54.6875 24.8047 -54.6875 L 35.5469 -54.6875 L 35.5469 -36.4746 C 35.5469 -29.541 38.8184 -26.2695 45.752 -26.2695 L 63.7207 -26.2695 L 63.7207 0.292969 C 63.7207 3.17383 62.3535 4.73633 59.2773 4.73633 Z M 46.582 -34.9121 C 44.9707 -34.9121 44.1895 -35.6934 44.1895 -37.3047 L 44.1895 -53.8574 L 62.9395 -34.9121 Z"/>
  </g>
  <g id="Semibold-S" transform="matrix(1 0 0 1 1991.51 696)">
   <path d="M 22.998 14.7461 L 59.9121 14.7461 C 68.5547 14.7461 73.0957 10.1074 73.0957 1.41602 L 73.0957 -4.78516 L 80.5176 -4.78516 C 89.1602 -4.78516 93.75 -9.42383 93.75 -18.1152 L 93.75 -72.0703 C 93.75 -80.7617 89.1602 -85.4004 80.5176 -85.4004 L 43.5547 -85.4004 C 34.9121 -85.4004 30.3711 -80.7617 30.3711 -72.0703 L 30.3711 -65.0879 L 22.998 -65.0879 C 14.3555 -65.0879 9.76562 -60.4492 9.76562 -51.7578 L 9.76562 1.41602 C 9.76562 10.1562 14.3555 14.7461 22.998 14.7461 Z M 52.6855 -70.8008 C 50.7812 -70.8008 49.9512 -72.2168 49.9512 -73.4375 L 49.9512 -74.3652 C 49.9512 -75.5859 50.7812 -77.0508 52.6855 -77.0508 L 71.3867 -77.0508 C 73.291 -77.0508 74.1699 -75.5859 74.1699 -74.3652 L 74.1699 -73.4375 C 74.1699 -72.2168 73.291 -70.8008 71.3867 -70.8008 Z M 23.9258 5.41992 C 20.6543 5.41992 19.0918 3.75977 19.0918 0.634766 L 19.0918 -50.9766 C 19.0918 -54.0527 20.6543 -55.7617 23.9258 -55.7617 L 35.3516 -55.7617 L 35.3516 -36.2793 C 35.3516 -30.0293 38.3789 -27.002 44.6289 -27.002 L 63.7695 -27.002 L 63.7695 0.634766 C 63.7695 3.75977 62.207 5.41992 58.9355 5.41992 Z M 45.459 -34.9121 C 43.9453 -34.9121 43.2617 -35.5957 43.2617 -37.1094 L 43.2617 -54.7852 L 62.793 -34.9121 Z"/>
  </g>
  <g id="Medium-S" transform="matrix(1 0 0 1 1695.53 696)">
   <path d="M 22.5586 14.3066 L 59.375 14.3066 C 67.8223 14.3066 72.168 9.86328 72.168 1.36719 L 72.168 -5.17578 L 79.4922 -5.17578 C 87.9395 -5.17578 92.2852 -9.61914 92.2852 -18.1152 L 92.2852 -71.875 C 92.2852 -80.4199 87.9395 -84.8633 79.4922 -84.8633 L 42.6758 -84.8633 C 34.2285 -84.8633 29.8828 -80.4199 29.8828 -71.875 L 29.8828 -64.8926 L 22.5586 -64.8926 C 14.1113 -64.8926 9.76562 -60.498 9.76562 -51.9531 L 9.76562 1.36719 C 9.76562 9.91211 14.1113 14.3066 22.5586 14.3066 Z M 51.6113 -70.5078 C 49.8047 -70.5078 48.9258 -71.8262 48.9258 -73.0469 L 48.9258 -73.9258 C 48.9258 -75.1465 49.8047 -76.5137 51.6113 -76.5137 L 70.5078 -76.5137 C 72.3633 -76.5137 73.1934 -75.1465 73.1934 -73.9258 L 73.1934 -73.0469 C 73.1934 -71.8262 72.3633 -70.5078 70.5078 -70.5078 Z M 23.2422 5.95703 C 19.8242 5.95703 18.0664 4.15039 18.0664 0.878906 L 18.0664 -51.4648 C 18.0664 -54.7363 19.8242 -56.5918 23.291 -56.5918 L 35.2051 -56.5918 L 35.2051 -36.1328 C 35.2051 -30.4199 38.0371 -27.5879 43.7988 -27.5879 L 63.8184 -27.5879 L 63.8184 0.878906 C 63.8184 4.15039 62.1094 5.95703 58.6426 5.95703 Z M 44.5801 -34.9121 C 43.1641 -34.9121 42.5293 -35.5469 42.5293 -36.9629 L 42.5293 -55.4688 L 62.6953 -34.9121 Z"/>
  </g>
  <g id="Regular-S" transform="matrix(1 0 0 1 1399.75 696)">
   <path d="M 22.0215 13.7207 L 58.6914 13.7207 C 66.8945 13.7207 70.9473 9.57031 70.9473 1.26953 L 70.9473 -5.71289 L 78.125 -5.71289 C 86.3281 -5.71289 90.4297 -9.86328 90.4297 -18.1641 L 90.4297 -71.6797 C 90.4297 -79.9805 86.3281 -84.1309 78.125 -84.1309 L 41.5039 -84.1309 C 33.3008 -84.1309 29.248 -79.9805 29.248 -71.6797 L 29.248 -64.6973 L 22.0215 -64.6973 C 13.8184 -64.6973 9.76562 -60.5469 9.76562 -52.2461 L 9.76562 1.26953 C 9.76562 9.61914 13.8184 13.7207 22.0215 13.7207 Z M 50.2441 -70.1172 C 48.4863 -70.1172 47.6562 -71.2891 47.6562 -72.5098 L 47.6562 -73.3887 C 47.6562 -74.6094 48.4863 -75.7812 50.2441 -75.7812 L 69.4336 -75.7812 C 71.1914 -75.7812 72.0215 -74.6094 72.0215 -73.3887 L 72.0215 -72.5098 C 72.0215 -71.2891 71.1914 -70.1172 69.4336 -70.1172 Z M 22.3633 6.68945 C 18.7012 6.68945 16.7969 4.6875 16.7969 1.17188 L 16.7969 -52.1484 C 16.7969 -55.6641 18.7012 -57.666 22.4121 -57.666 L 35.0098 -57.666 L 35.0098 -35.9863 C 35.0098 -30.8594 37.5977 -28.3203 42.6758 -28.3203 L 63.8672 -28.3203 L 63.8672 1.17188 C 63.8672 4.6875 61.9629 6.68945 58.3008 6.68945 Z M 43.5059 -34.8633 C 42.1387 -34.8633 41.5527 -35.4492 41.5527 -36.8164 L 41.5527 -56.3477 L 62.5488 -34.8633 Z"/>
  </g>
  <g id="Light-S" transform="matrix(1 0 0 1 1103.67 696)">
   <path d="M 21.2891 13.1348 L 58.8379 13.1348 C 66.4551 13.1348 69.9707 9.22852 69.9707 1.51367 L 69.9707 -5.66406 L 77.6367 -5.66406 C 85.3027 -5.66406 89.1602 -9.57031 89.1602 -17.2852 L 89.1602 -71.875 C 89.1602 -79.5898 85.2539 -83.5449 77.6367 -83.5449 L 40.4297 -83.5449 C 32.8125 -83.5449 28.9551 -79.5898 28.9551 -71.875 L 28.9551 -64.6973 L 21.2891 -64.6973 C 13.6719 -64.6973 9.76562 -60.791 9.76562 -53.0762 L 9.76562 1.51367 C 9.76562 9.27734 13.623 13.1348 21.2891 13.1348 Z M 49.9512 -70.459 C 48.3398 -70.459 47.6074 -71.4844 47.6074 -72.5586 L 47.6074 -73.3398 C 47.6074 -74.4629 48.3398 -75.4883 49.9512 -75.4883 L 68.1641 -75.4883 C 69.7266 -75.4883 70.5078 -74.4629 70.5078 -73.3398 L 70.5078 -72.5586 C 70.5078 -71.4844 69.7266 -70.459 68.1641 -70.459 Z M 21.5332 7.71484 C 17.3828 7.71484 15.1855 5.46875 15.1855 1.41602 L 15.1855 -52.9785 C 15.1855 -56.9824 17.3828 -59.2773 21.582 -59.2773 L 35.4492 -59.2773 L 35.4492 -36.6699 C 35.4492 -32.0801 37.793 -29.834 42.2363 -29.834 L 64.5508 -29.834 L 64.5508 1.41602 C 64.5508 5.46875 62.4023 7.71484 58.2031 7.71484 Z M 42.8711 -34.9609 C 41.2109 -34.9609 40.5762 -35.6445 40.5762 -37.2559 L 40.5762 -58.2031 L 63.4766 -34.9609 Z"/>
  </g>
  <g id="Thin-S" transform="matrix(1 0 0 1 807.789 696)">
   <path d="M 20.2637 12.4023 L 58.9844 12.4023 C 65.918 12.4023 68.75 8.78906 68.75 1.85547 L 68.75 -5.61523 L 77.002 -5.61523 C 83.9355 -5.61523 87.5 -9.22852 87.5 -16.1621 L 87.5 -72.168 C 87.5 -79.1016 83.8379 -82.7148 77.002 -82.7148 L 39.0137 -82.7148 C 32.1777 -82.7148 28.5156 -79.1016 28.5156 -72.168 L 28.5156 -64.7461 L 20.2637 -64.7461 C 13.4277 -64.7461 9.76562 -61.1328 9.76562 -54.1992 L 9.76562 1.85547 C 9.76562 8.78906 13.3789 12.4023 20.2637 12.4023 Z M 49.5117 -70.8496 C 48.1934 -70.8496 47.5586 -71.7285 47.5586 -72.6562 L 47.5586 -73.3398 C 47.5586 -74.2188 48.1934 -75.0977 49.5117 -75.0977 L 66.5039 -75.0977 C 67.8711 -75.0977 68.5059 -74.2188 68.5059 -73.3398 L 68.5059 -72.6562 C 68.5059 -71.7285 67.8711 -70.8496 66.5039 -70.8496 Z M 20.4102 9.08203 C 15.5762 9.08203 13.0859 6.54297 13.0859 1.75781 L 13.0859 -54.1016 C 13.0859 -58.7402 15.5762 -61.4258 20.459 -61.4258 L 36.0352 -61.4258 L 36.0352 -37.5977 C 36.0352 -33.6426 38.0371 -31.8848 41.748 -31.8848 L 65.4297 -31.8848 L 65.4297 1.75781 C 65.4297 6.54297 62.9395 9.08203 58.1055 9.08203 Z M 42.041 -35.0586 C 40.0391 -35.0586 39.209 -35.8887 39.209 -37.8906 L 39.209 -60.6934 L 64.6973 -35.0586 Z"/>
  </g>
  <g id="Ultralight-S" transform="matrix(1 0 0 1 511.493 696)">
   <path d="M 19.7266 12.0117 L 59.082 12.0117 C 65.5762 12.0117 68.1152 8.54492 68.1152 2.00195 L 68.1152 -5.56641 L 76.709 -5.56641 C 83.2031 -5.56641 86.6699 -9.0332 86.6699 -15.5762 L 86.6699 -72.3145 C 86.6699 -78.8574 83.1055 -82.3242 76.709 -82.3242 L 38.2812 -82.3242 C 31.8848 -82.3242 28.3203 -78.8574 28.3203 -72.3145 L 28.3203 -64.7461 L 19.7266 -64.7461 C 13.3301 -64.7461 9.76562 -61.2793 9.76562 -54.7363 L 9.76562 2.00195 C 9.76562 8.54492 13.2324 12.0117 19.7266 12.0117 Z M 49.3164 -71.0938 C 48.0957 -71.0938 47.5098 -71.875 47.5098 -72.7051 L 47.5098 -73.291 C 47.5098 -74.1211 48.0957 -74.9023 49.3164 -74.9023 L 65.6738 -74.9023 C 66.8945 -74.9023 67.4805 -74.1211 67.4805 -73.291 L 67.4805 -72.7051 C 67.4805 -71.875 66.8945 -71.0938 65.6738 -71.0938 Z M 19.873 9.81445 C 14.6484 9.81445 11.9629 7.08008 11.9629 1.9043 L 11.9629 -54.6387 C 11.9629 -59.668 14.6484 -62.5488 19.873 -62.5488 L 36.377 -62.5488 L 36.377 -38.0859 C 36.377 -34.4727 38.1348 -32.959 41.4551 -32.959 L 65.918 -32.959 L 65.918 1.9043 C 65.918 7.08008 63.2324 9.81445 58.0078 9.81445 Z M 41.6016 -35.1562 C 39.4043 -35.1562 38.5254 -35.9863 38.5254 -38.2324 L 38.5254 -61.9629 L 65.332 -35.1562 Z"/>
  </g>
 </g>
</svg>
